# xmcd CD database file
#
# Track frame offsets:
#	150
#	19286
#	32912
#	53409
#	70257
#	88215
#	101287
#	118417
#	134826
#	149405
#	163173
#
# Disc length: 2420 seconds
#
# Revision: 1
# Processed by: cddbd v1.5.2PL0 Copyright (c) Steve Scherf et al.
# Submitted via: CDex 1.79
#
DISCID=a409720b
DTITLE=Jason Cassidy - Keep It Country
DYEAR=2013
DGENRE=Country
TTITLE0=Southern Side
TTITLE1=Blame It On Waylon
TTITLE2=Cover Your Eyes
TTITLE3=Nothing Holds A Memory (Like A Song)
TTITLE4=Damn Good Beer
TTITLE5=In My Wildest Dreams
TTITLE6=You (Wedding Song)
TTITLE7=Sweet Memories
TTITLE8=Take It Off
TTITLE9=Need Her More
TTITLE10=Stay Here and Drink
EXTD=YEAR: 2013
EXTT0=
EXTT1=
EXTT2=
EXTT3=
EXTT4=
EXTT5=
EXTT6=
EXTT7=
EXTT8=
EXTT9=
EXTT10=
PLAYORDER=
